<?xml version="1.0" encoding="UTF-8" standalone="no"?>
<svg
   height="100"
   viewBox="0 0 100 100.00001"
   width="100"
   version="1.1"
   id="svg143"
   sodipodi:docname="increase-font.svg"
   inkscape:version="1.2.2 (b0a8486541, 2022-12-01)"
   xmlns:inkscape="http://www.inkscape.org/namespaces/inkscape"
   xmlns:sodipodi="http://sodipodi.sourceforge.net/DTD/sodipodi-0.dtd"
   xmlns="http://www.w3.org/2000/svg"
   xmlns:svg="http://www.w3.org/2000/svg">
  <defs
     id="defs147" />
  <sodipodi:namedview
     id="namedview145"
     pagecolor="#1b1b1b"
     bordercolor="#000000"
     borderopacity="0.25"
     inkscape:showpageshadow="2"
     inkscape:pageopacity="0"
     inkscape:pagecheckerboard="0"
     inkscape:deskcolor="#d1d1d1"
     showgrid="true"
     inkscape:zoom="4.0934854"
     inkscape:cx="16.245325"
     inkscape:cy="71.943582"
     inkscape:window-width="1920"
     inkscape:window-height="1011"
     inkscape:window-x="0"
     inkscape:window-y="0"
     inkscape:window-maximized="1"
     inkscape:current-layer="svg143">
    <inkscape:grid
       type="xygrid"
       id="grid765"
       originx="0"
       originy="0" />
  </sodipodi:namedview>
  <path
     d="m 57.5,11 c -3.214286,0 -5.357143,2.142857 -5.357143,5.357143 0,3.214286 2.142857,5.357143 5.357143,5.357143 H 74.013383 C 80,21.714286 84.285714,25 84.285714,30.876096 v 5.9676 H 67.142857 c -12.857143,0 -23.616642,8.013303 -23.571428,21.941874 l 0.02438,7.510477 C 43.640989,80.214142 53.221836,89.214286 65,89.214286 h 22.5 c 0,0 7.5,0 7.5,-8.720982 V 29.152332 C 95,18 87,11 74.282822,11 Z M 84.285714,47.557981 V 78.5 H 67.142857 c -7.5,0 -12.857143,-3.9041 -12.857143,-12.21443 v -7.5 c 0,-7.5 5.357143,-11.227589 12.857143,-11.227589 z"
     fill-opacity="0.988235"
     id="path141"
     style="fill:#ffffff;fill-opacity:1;stroke-width:7.9557"
     sodipodi:nodetypes="zszsscsssscssszccssssc" />
  <path
     style="fill:#ffffff;fill-opacity:1;stroke:none;stroke-width:0;stroke-linecap:round;stroke-linejoin:round;stroke-dasharray:none;paint-order:fill markers stroke"
     d="m 15.714286,83.857143 v -52.5 H 8.2142857 c -3.2142854,0 -3.2142854,-2.142857 -3.2142854,-3.214286 C 5.0000003,24.928572 21.071429,11 21.071429,11 c 0,0 17.142857,13.928572 17.142857,17.142857 0,1.071429 0,3.214286 -3.214286,3.214286 h -8.571429 v 52.5 c 0,3.214286 -2.142857,5.357143 -5.357142,5.357143 -3.214286,0 -5.357143,-2.142857 -5.357143,-5.357143 z"
     id="path984"
     sodipodi:nodetypes="scsscssczzs" />
</svg>
