<?xml version="1.0" encoding="UTF-8" standalone="no"?>
<svg
   height="16px"
   viewBox="0 0 16 16"
   width="16px"
   version="1.1"
   id="svg143"
   sodipodi:docname="increase-font.svg"
   inkscape:version="1.2.2 (b0a8486541, 2022-12-01)"
   xmlns:inkscape="http://www.inkscape.org/namespaces/inkscape"
   xmlns:sodipodi="http://sodipodi.sourceforge.net/DTD/sodipodi-0.dtd"
   xmlns="http://www.w3.org/2000/svg"
   xmlns:svg="http://www.w3.org/2000/svg">
  <defs
     id="defs147" />
  <sodipodi:namedview
     id="namedview145"
     pagecolor="#ffffff"
     bordercolor="#000000"
     borderopacity="0.25"
     inkscape:showpageshadow="2"
     inkscape:pageopacity="0.0"
     inkscape:pagecheckerboard="0"
     inkscape:deskcolor="#d1d1d1"
     showgrid="false"
     inkscape:zoom="32.747883"
     inkscape:cx="5.6644883"
     inkscape:cy="6.0614606"
     inkscape:window-width="1920"
     inkscape:window-height="1011"
     inkscape:window-x="0"
     inkscape:window-y="0"
     inkscape:window-maximized="1"
     inkscape:current-layer="svg143" />
  <path
     d="M 3.2507268,14.241368 V 1.7587684 l -1.9331125,2.77391"
     fill="none"
     stroke="#000000"
     stroke-linecap="round"
     stroke-linejoin="round"
     stroke-width="2.49595"
     id="path137"
     style="fill:none;fill-opacity:1;stroke:#ffffff;stroke-width:1.38794;stroke-dasharray:none;stroke-opacity:1" />
  <path
     d="m 3.2507268,1.7587684 1.9331125,2.77391"
     fill="none"
     stroke="#000000"
     stroke-linecap="round"
     stroke-linejoin="round"
     stroke-width="2.49595"
     id="path139"
     style="fill:none;fill-opacity:1;stroke:#ffffff;stroke-width:1.38794;stroke-dasharray:none;stroke-opacity:1" />
  <path
     d="m 9.3727781,2.1361093 c 0,0 -1.1412642,0.052947 -1.1412642,0.9196886 0,0.928381 1.1412642,0.9529208 1.1412642,0.9529208 h 2.8926839 c 1.186389,0 1.186389,1.6865578 1.186389,1.6865578 H 10.559167 C 8.1863891,5.6952765 7,8.0680546 7,9.2544437 V 10.440833 C 7,12.813611 8.802755,14 10.559167,14 h 3.559167 c 0,0 1.18639,0 1.18639,-1.186389 V 4.5088874 c 0,-1.1863891 -1.18639,-2.3727781 -2.372779,-2.3727781 z m 4.0321759,5.3681801 v 4.7889246 c -1.186389,0 -4.636933,0.279002 -4.636933,-1.186389 V 8.6906785 c 0,-1.4090299 3.450544,-1.1863891 4.636933,-1.1863891 z"
     fill-opacity="0.988235"
     id="path141"
     style="fill:#ffffff;fill-opacity:1;stroke-width:1.18639"
     sodipodi:nodetypes="cscscsssscssscccssc" />
</svg>
