<?xml version="1.0" encoding="UTF-8" standalone="no"?>
<svg
   height="16px"
   viewBox="0 0 16 16"
   width="16px"
   version="1.1"
   id="svg1"
   sodipodi:docname="decrease-font-symbolic.svg"
   inkscape:version="1.4 (e7c3feb100, 2024-10-09)"
   xmlns:inkscape="http://www.inkscape.org/namespaces/inkscape"
   xmlns:sodipodi="http://sodipodi.sourceforge.net/DTD/sodipodi-0.dtd"
   xmlns="http://www.w3.org/2000/svg"
   xmlns:svg="http://www.w3.org/2000/svg">
  <defs
     id="defs1">
    <inkscape:path-effect
       effect="fillet_chamfer"
       id="path-effect3"
       is_visible="true"
       lpeversion="1"
       nodesatellites_param="F,0,0,1,0,0,0,1 @ F,0,0,1,0,3,0,1 @ F,0,0,1,0,0,0,1 @ F,0,0,1,0,2,0,1 @ F,0,0,1,0,2,0,1 @ F,0,0,1,0,0,0,1"
       radius="0"
       unit="px"
       method="auto"
       mode="F"
       chamfer_steps="1"
       flexible="false"
       use_knot_distance="true"
       apply_no_radius="true"
       apply_with_radius="true"
       only_selected="false"
       hide_knots="false" />
  </defs>
  <sodipodi:namedview
     id="namedview1"
     pagecolor="#ffffff"
     bordercolor="#000000"
     borderopacity="0.25"
     inkscape:showpageshadow="2"
     inkscape:pageopacity="0.0"
     inkscape:pagecheckerboard="0"
     inkscape:deskcolor="#d1d1d1"
     showgrid="true"
     inkscape:zoom="33.543378"
     inkscape:cx="8.1834334"
     inkscape:cy="7.7660634"
     inkscape:window-width="1920"
     inkscape:window-height="1011"
     inkscape:window-x="0"
     inkscape:window-y="0"
     inkscape:window-maximized="1"
     inkscape:current-layer="svg1">
    <inkscape:grid
       id="grid1"
       units="px"
       originx="0"
       originy="0"
       spacingx="1"
       spacingy="1"
       empcolor="#0099e5"
       empopacity="0.30196078"
       color="#0099e5"
       opacity="0.14901961"
       empspacing="5"
       enabled="true"
       visible="true" />
  </sodipodi:namedview>
  <path
     d="m 11,5 c -0.550781,0 -1,0.449219 -1,1 0,0.550781 0.449219,1 1,1 h 2 c 0.558594,0 0.992188,0.429688 1,0.988281 H 12.597656 C 10.671875,7.945312 9.0546875,9.496094 9.015625,11.417969 v 0.01953 c 0,1.957031 1.605469,3.5625 3.558594,3.5625 H 15 c 0.550781,0 1,-0.449219 1,-1 V 8 C 16,6.355469 14.644531,5 13,5 Z m 1.554688,4.988281 H 12.574219 14 V 13 h -1.425781 c -0.867188,0 -1.546875,-0.683594 -1.554688,-1.550781 0.02344,-0.835938 0.695313,-1.480469 1.535157,-1.460938 z"
     fill="#2e3434"
     id="path1"
     sodipodi:nodetypes="sssscccsssssssccccscc"
     style="display:none" />
  <path
     style="fill:none;fill-opacity:1;fill-rule:evenodd;stroke:#2e3434;stroke-width:2;stroke-linecap:round;stroke-linejoin:round;stroke-dasharray:none;stroke-opacity:1"
     d="M 3,3 V 14 L 5,11 H 1 l 2,3"
     id="path2"
     sodipodi:nodetypes="ccccc" />
  <path
     style="fill:none;fill-opacity:1;fill-rule:evenodd;stroke:#2e3434;stroke-width:2;stroke-linecap:round;stroke-linejoin:round;stroke-dasharray:none;stroke-opacity:1"
     d="m 10,3 h 2 a 3,3 45 0 1 3,3 v 8 H 11 A 2,2 45 0 1 9,12 v -2 a 2,2 135 0 1 2,-2 h 4"
     id="path3"
     inkscape:path-effect="#path-effect3"
     inkscape:original-d="m 10,3 h 5 V 14 H 9 V 8 h 6"
     sodipodi:nodetypes="cccccc" />
</svg>
