<?xml version="1.0" encoding="UTF-8"?>
<svg height="16px" viewBox="0 0 16 16" width="16px" xmlns="http://www.w3.org/2000/svg">
    <path d="m 13 12 l 1 2 s 0 1 -1 1 h -9 c -1 0 -1 -1 -1 -1 l 1 -2 h -1 l -1 2 s 0 2 2 2 h 9 c 2 0 2 -2 2 -2 l -1 -2 s 0 -1 -1 -1 h -9 c -1 0 -1 1 -1 1 z m -1 1 h -7 c -1 0 -1 1 0 1 h 7 c 1 0 1 -1 0 -1 z m 0 0"/>
    <path d="m 13 9 l 1 -6 s 0 -1 -1 -1 h -9 c -1 0 -1 1 -1 1 l 1 6 h -1 s -1 -5 -1 -6 s 1 -2 2 -2 h 9 c 2 0 2 2 2 2 l -1 6 s 0 1 -1 1 h -9 c -1 0 -1 -1 -1 -1 z m -1 -3 h -7 c -1 0 -1 -1 0 -1 h 7 c 1 0 1 1 0 1 z m 0 -2 h -7 c -1 0 -1 -1 0 -1 h 7 c 1 0 1 1 0 1 z m -6 4 h 5 c 1 0 1 -1 0 -1 h -5 c -1 0 -1 1 0 1 z m 0 0"/>
</svg>
