<?xml version="1.0" encoding="UTF-8"?>
<svg height="128px" viewBox="0 0 128 128" width="128px" xmlns="http://www.w3.org/2000/svg" xmlns:xlink="http://www.w3.org/1999/xlink">
    <linearGradient id="a" gradientTransform="matrix(1.10389 0 0 0.140952 -4.161508 73.341911)" gradientUnits="userSpaceOnUse" x1="20" x2="108" y1="238" y2="238">
        <stop offset="0" stop-color="#deddda"/>
        <stop offset="0.0454546" stop-color="#eeeeec"/>
        <stop offset="0.0909091" stop-color="#deddda"/>
        <stop offset="0.909091" stop-color="#deddda"/>
        <stop offset="0.954545" stop-color="#eeeeec"/>
        <stop offset="1" stop-color="#c0bfbc"/>
    </linearGradient>
    <linearGradient id="b" gradientUnits="userSpaceOnUse">
        <stop offset="0" stop-color="#a2a2a2"/>
        <stop offset="1" stop-color="#b7b7b7"/>
    </linearGradient>
    <linearGradient id="c" x1="76.55283713251" x2="435.44690886749" xlink:href="#b" y1="90.67548" y2="90.67548"/>
    <linearGradient id="d" x1="24.000094" x2="103.999896" xlink:href="#b" y1="24.000011" y2="24.000011"/>
    <path d="m 16 101.5 h 96 c 1.65625 0 3 1.34375 3 3 v 7 c 0 1.65625 -1.34375 3 -3 3 h -96 c -1.65625 0 -3 -1.34375 -3 -3 v -7 c 0 -1.65625 1.34375 -3 3 -3 z m 0 0" fill="url(#a)"/>
    <path d="m 76.552417 104.134016 l 26.917123 -31.403309 h 305.060723 l 26.917123 31.403309 z m 0 0" fill="none" stroke="url(#c)" stroke-linecap="round" stroke-linejoin="round" stroke-width="26.917101" transform="matrix(0.222906 0 0 0.222906 6.935973 3.787857)"/>
    <path d="m 24 27 l 6 -7 h 68 l 6 7 z m 0 0" fill="url(#d)"/>
    <path d="m 23.9999660638 26.9999539705 h 79.99984195991 l -5.99998821944 42.99991508968 h -67.99986552104 z m 0 0" fill="none" stroke="#d4d2cf" stroke-linecap="round" stroke-linejoin="round" stroke-width="5.99998331551"/>
    <path d="m 24 27 h 80 l -6 43 h -68 z m 0 0" fill="#2c2c2c"/>
    <g stroke-linecap="round" stroke-linejoin="round">
        <path d="m 29.99995428324 31.99994419051 h 25.99994865369" fill="none" stroke="#2cc0ff" stroke-width="3.9999812982"/>
        <path d="m 97.99981980428 31.99994419051 h -15.99996821366" fill="none" stroke="#2cc0ff" stroke-width="3.9999812982"/>
        <path d="m 73.99986737234 31.99994419051 h -9.99998021713" fill="none" stroke="#2cc0ff" stroke-width="3.9999812982"/>
        <path d="m 30.99995228266 39.99992840879 h 16.52731098094" fill="none" stroke="#2cc0ff" stroke-width="3.9999812982"/>
        <path d="m 96.99982180486 39.99992840879 h -19.91011683352" fill="none" stroke="#2cc0ff" stroke-width="3.9999812982"/>
        <path d="m 68.20300380574 39.99992840879 h -12.40622552165" fill="none" stroke="#e01b24" stroke-width="3.9999812982"/>
        <path d="m 33.99994628093 55.99989684536 h 14.99997043714" fill="none" stroke="#2cc0ff" stroke-width="3.9999812982"/>
        <path d="m 93.99982780659 55.99989684536 h -36.99992687024" fill="none" stroke="#2cc0ff" stroke-width="3.9999812982"/>
        <path d="m 32.99994828151 47.99991262708 l 24.5077641755 0.02734365611" fill="#fffdfc" stroke="#2cc0ff" stroke-width="3.9999812982"/>
        <path d="m 94.99982580601 47.99991262708 l -29.22259855142 0.02734365611" fill="#fffdfc" stroke="#2cc0ff" stroke-width="3.9999812982"/>
        <path d="m 34.99994428035 63.99988106364 h 7.99998421828" fill="none" stroke="#e01b24" stroke-width="3.9999812982"/>
        <path d="m 92.99982980717 63.99988106364 h -14.99997043714" fill="none" stroke="#2cc0ff" stroke-width="3.9999812982"/>
        <path d="m 69.99987515174 63.99988106364 h -18.99996243483" fill="none" stroke="#2cc0ff" stroke-width="3.9999812982"/>
        <path d="m 29.99995428324 81.12484716596 l 67.99986552104 -0.12499988924 l 13.99997243772 22.99995465542 h -95.99981039648 z m 0 0" fill="none" stroke="#d4d2cf" stroke-width="5.99998331551"/>
    </g>
    <path d="m 30 81.125 l 68 -0.125 l 14 23 h -96 z m 0 0" fill="#2c2c2c"/>
    <path d="m 34.99994428035 84.99983949731 h 7.64842244773" fill="none" stroke="#e01b24" stroke-linecap="round" stroke-linejoin="round" stroke-width="3.99999199769"/>
    <path d="m 92.99982980717 84.99983949731 h -15.8905935892" fill="none" stroke="#2cc0ff" stroke-linecap="round" stroke-linejoin="round" stroke-width="3.9999812982"/>
    <path d="m 68.83972119748 84.99983949731 h -17.91793324416" fill="none" stroke="#2cc0ff" stroke-linecap="round" stroke-linejoin="round" stroke-width="3.9999812982"/>
    <path d="m 30.99995228266 91.99982571617 h 17.99996443541" fill="none" stroke="#2cc0ff" stroke-linecap="round" stroke-linejoin="round" stroke-width="3.9999812982"/>
    <path d="m 96.88263454801 91.99982571617 h -39.88273361165" fill="none" stroke="#2cc0ff" stroke-linecap="round" stroke-linejoin="round" stroke-width="3.9999812982"/>
    <path d="m 25.99996206265 98.99981171213 h 26.09369845917" fill="none" stroke="#2cc0ff" stroke-linecap="round" stroke-linejoin="round" stroke-width="3.9999812982"/>
    <path d="m 100.99981402545 98.99981171213 h -39.39445356053" fill="none" stroke="#2cc0ff" stroke-linecap="round" stroke-linejoin="round" stroke-width="3.9999812982"/>
    <path d="m 24 27 l 74 43 h -68 z m 0 0" fill="#ffffff" fill-opacity="0.239216"/>
    <path d="m 30 81 l -14 23 l 82 -23 z m 0 0" fill="#ffffff" fill-opacity="0.239216"/>
</svg>
