<?xml version="1.0" encoding="UTF-8"?>
<svg height="16px" viewBox="0 0 16 16" width="16px" xmlns="http://www.w3.org/2000/svg">
    <path d="m 4 4 v 9 l -2 -2" fill="none" stroke="#000000" stroke-linecap="round" stroke-linejoin="round" stroke-width="2"/>
    <path d="m 4 13 l 2 -2" fill="none" stroke="#000000" stroke-linecap="round" stroke-linejoin="round" stroke-width="2"/>
    <path d="m 10 4 s -1 0 -1 1 s 1 1 1 1 h 1.402344 c 1.210937 0 1.597656 0.40625 1.597656 1.253906 v 0.746094 c -0.539062 0 -2 0 -2 0 c -1.996094 0 -3 0.828125 -3 3 c 0 2.308594 1.539062 3 3 3 h 3 s 1 0 1 -1 v -6 c 0 -2 -1 -3 -3 -3 z m 3 6 v 2 c -0.492188 0 -1.519531 0 -2 0 c -0.558594 0 -1 -0.433594 -1 -1 c 0 -0.804688 0.472656 -1 1 -1 z m 0 0" fill-opacity="0.988235"/>
</svg>
