<?xml version="1.0" encoding="UTF-8"?>
<svg height="16px" viewBox="0 0 16 16" width="16px" xmlns="http://www.w3.org/2000/svg">
    <path d="m 4 13 v -9 l -2 2" fill="none" stroke="#000000" stroke-linecap="round" stroke-linejoin="round" stroke-width="2"/>
    <path d="m 4 4 l 2 2" fill="none" stroke="#000000" stroke-linecap="round" stroke-linejoin="round" stroke-width="2"/>
    <path d="m 9 4 s -1 0 -1 1 s 1 1 1 1 h 2 c 1 0 1 1 1 1 h -2 c -2 0 -3 2 -3 3 v 1 c 0 2 1.519531 3 3 3 h 3 s 1 0 1 -1 v -7 c 0 -1 -1 -2 -2 -2 z m 3 5 v 3 c -1 0 -3 0 -3 -1 v -1 c 0 -1 2 -1 3 -1 z m 0 0" fill-opacity="0.988235"/>
</svg>
